<svg width="165" height="29" viewBox="0 0 165 29" fill="none" xmlns="http://www.w3.org/2000/svg">
<g clip-path="url(#clip0_8_112)">
<rect y="2.5" width="24" height="24" rx="4" fill="#ECF0FF"/>
<path d="M4.65755 24.3846C3.22726 25.2104 1.71662 25.8295 0.125632 26.2422C-1.48221 26.6256 -3.05756 26.7956 -4.60041 26.7523C-6.11407 26.6922 -7.48856 26.4349 -8.72388 25.9806C-9.97605 25.497 -10.9616 24.8011 -11.6805 23.8929L-4.91345 17.0086C-4.22943 17.5867 -3.41466 17.9531 -2.46915 18.1077C-1.54048 18.2332 -0.548482 18.0302 0.506856 17.4987C1.34101 17.056 1.92976 16.4242 2.2731 15.6033C2.64563 14.7655 2.61281 13.9671 2.17464 13.2082C1.88815 12.712 1.42878 12.3545 0.796525 12.1357C0.17661 11.8709 -0.58639 11.8639 -1.49248 12.1146L-6.77235 13.5867C-8.58452 14.0881 -10.3042 14.2441 -11.9313 14.0549C-13.5292 13.8488 -14.9886 13.3097 -16.3093 12.4377C-17.6009 11.5488 -18.6849 10.3454 -19.5612 8.82752C-21.2971 5.821 -21.6528 2.91285 -20.6285 0.103077C-19.5919 -2.75274 -17.2638 -5.22551 -13.6443 -7.31523C-11.7178 -8.4275 -9.8816 -9.15684 -8.13563 -9.50325C-6.36047 -9.8665 -4.63571 -9.81147 -2.96134 -9.33815C-1.27464 -8.91088 0.41614 -8.03838 2.11099 -6.72066L-4.56175 0.225937C-5.04475 -0.27359 -5.76126 -0.638297 -6.7113 -0.868184C-7.63214 -1.11492 -8.60338 -0.943371 -9.62501 -0.353531C-10.6175 0.219456 -11.2646 0.88497 -11.5664 1.64301C-11.839 2.3842 -11.731 3.17804 -11.2422 4.02454C-10.9389 4.54995 -10.4503 4.89059 -9.77655 5.04645C-9.11962 5.17313 -8.32352 5.10269 -7.38825 4.83515L-2.06459 3.33776C0.607624 2.57335 3.09764 2.67305 5.40547 3.63686C7.69645 4.57149 9.47391 6.13341 10.7379 8.32262C11.9007 10.3367 12.4195 12.3139 12.2944 14.2543C12.1984 16.1778 11.5 18.0016 10.1992 19.7257C8.89829 21.4497 7.05109 23.0027 4.65755 24.3846Z" fill="#465FF1" fill-opacity="0.5"/>
</g>
<path d="M43.464 23.288C42.616 23.288 41.824 23.184 41.088 22.976C40.352 22.768 39.696 22.48 39.12 22.112C38.544 21.728 38.064 21.304 37.68 20.84C37.312 20.376 37.072 19.888 36.96 19.376L40.176 18.416C40.384 18.96 40.752 19.432 41.28 19.832C41.808 20.216 42.472 20.416 43.272 20.432C44.12 20.448 44.808 20.264 45.336 19.88C45.88 19.496 46.152 19 46.152 18.392C46.152 17.864 45.936 17.424 45.504 17.072C45.088 16.704 44.512 16.424 43.776 16.232L41.592 15.656C40.776 15.448 40.056 15.136 39.432 14.72C38.808 14.288 38.32 13.76 37.968 13.136C37.616 12.512 37.44 11.784 37.44 10.952C37.44 9.368 37.96 8.136 39 7.256C40.056 6.36 41.544 5.912 43.464 5.912C44.536 5.912 45.472 6.072 46.272 6.392C47.088 6.696 47.768 7.136 48.312 7.712C48.856 8.288 49.272 8.968 49.56 9.752L46.368 10.736C46.176 10.192 45.824 9.728 45.312 9.344C44.8 8.96 44.152 8.768 43.368 8.768C42.568 8.768 41.936 8.952 41.472 9.32C41.024 9.688 40.8 10.208 40.8 10.88C40.8 11.408 40.976 11.824 41.328 12.128C41.696 12.432 42.192 12.664 42.816 12.824L45.024 13.376C46.464 13.728 47.584 14.36 48.384 15.272C49.184 16.184 49.584 17.2 49.584 18.32C49.584 19.312 49.344 20.184 48.864 20.936C48.384 21.672 47.688 22.248 46.776 22.664C45.864 23.08 44.76 23.288 43.464 23.288ZM52.1381 23V11H55.3061V23H52.1381ZM53.7221 9.056C53.2421 9.056 52.8181 8.88 52.4501 8.528C52.0821 8.16 51.8981 7.728 51.8981 7.232C51.8981 6.736 52.0821 6.312 52.4501 5.96C52.8181 5.592 53.2421 5.408 53.7221 5.408C54.2181 5.408 54.6421 5.592 54.9941 5.96C55.3621 6.312 55.5461 6.736 55.5461 7.232C55.5461 7.728 55.3621 8.16 54.9941 8.528C54.6421 8.88 54.2181 9.056 53.7221 9.056ZM58.2274 23V11H61.2034L61.3474 12.56C61.7154 11.952 62.1874 11.496 62.7634 11.192C63.3394 10.872 63.9794 10.712 64.6834 10.712C65.6594 10.712 66.4754 10.92 67.1314 11.336C67.8034 11.752 68.2914 12.392 68.5954 13.256C68.9474 12.44 69.4434 11.816 70.0834 11.384C70.7234 10.936 71.4674 10.712 72.3154 10.712C73.7234 10.712 74.7954 11.16 75.5314 12.056C76.2674 12.936 76.6354 14.296 76.6354 16.136V23H73.4674V16.856C73.4674 16.04 73.3794 15.408 73.2034 14.96C73.0274 14.512 72.7874 14.192 72.4834 14C72.1794 13.792 71.8194 13.688 71.4034 13.688C70.6354 13.672 70.0434 13.92 69.6274 14.432C69.2114 14.944 69.0034 15.704 69.0034 16.712V23H65.8354V16.856C65.8354 16.04 65.7474 15.408 65.5714 14.96C65.4114 14.512 65.1714 14.192 64.8514 14C64.5474 13.792 64.1874 13.688 63.7714 13.688C63.0034 13.672 62.4114 13.92 61.9954 14.432C61.5954 14.944 61.3954 15.704 61.3954 16.712V23H58.2274ZM79.2771 27.8V11H82.2531L82.4451 13.208V27.8H79.2771ZM86.0691 23.288C85.0611 23.288 84.2051 23.032 83.5011 22.52C82.8131 22.008 82.2851 21.28 81.9171 20.336C81.5491 19.392 81.3651 18.28 81.3651 17C81.3651 15.704 81.5491 14.592 81.9171 13.664C82.2851 12.72 82.8131 11.992 83.5011 11.48C84.2051 10.968 85.0611 10.712 86.0691 10.712C87.1731 10.712 88.1251 10.968 88.9251 11.48C89.7411 11.992 90.3731 12.72 90.8211 13.664C91.2691 14.592 91.4931 15.704 91.4931 17C91.4931 18.28 91.2691 19.392 90.8211 20.336C90.3731 21.28 89.7411 22.008 88.9251 22.52C88.1251 23.032 87.1731 23.288 86.0691 23.288ZM85.2531 20.384C85.8291 20.384 86.3331 20.24 86.7651 19.952C87.2131 19.664 87.5651 19.264 87.8211 18.752C88.0771 18.24 88.2051 17.656 88.2051 17C88.2051 16.344 88.0771 15.76 87.8211 15.248C87.5811 14.736 87.2371 14.344 86.7891 14.072C86.3571 13.784 85.8531 13.64 85.2771 13.64C84.7331 13.64 84.2451 13.784 83.8131 14.072C83.3811 14.36 83.0451 14.76 82.8051 15.272C82.5651 15.768 82.4451 16.344 82.4451 17C82.4451 17.656 82.5651 18.24 82.8051 18.752C83.0451 19.264 83.3731 19.664 83.7891 19.952C84.2211 20.24 84.7091 20.384 85.2531 20.384ZM93.5711 23V6.2H96.7391V23H93.5711ZM104.901 23.288C103.717 23.288 102.669 23.024 101.757 22.496C100.845 21.952 100.125 21.208 99.5974 20.264C99.0854 19.32 98.8294 18.232 98.8294 17C98.8294 15.768 99.0934 14.68 99.6214 13.736C100.165 12.792 100.901 12.056 101.829 11.528C102.773 10.984 103.853 10.712 105.069 10.712C106.125 10.712 107.093 10.992 107.973 11.552C108.869 12.096 109.581 12.904 110.109 13.976C110.653 15.032 110.925 16.32 110.925 17.84H101.829L102.117 17.552C102.117 18.144 102.261 18.664 102.549 19.112C102.853 19.544 103.237 19.88 103.701 20.12C104.181 20.344 104.693 20.456 105.237 20.456C105.893 20.456 106.429 20.32 106.845 20.048C107.261 19.76 107.581 19.392 107.805 18.944L110.637 20.048C110.301 20.72 109.861 21.304 109.317 21.8C108.789 22.28 108.157 22.648 107.421 22.904C106.685 23.16 105.845 23.288 104.901 23.288ZM102.285 15.776L101.997 15.488H107.781L107.517 15.776C107.517 15.2 107.381 14.744 107.109 14.408C106.837 14.056 106.501 13.8 106.101 13.64C105.717 13.48 105.341 13.4 104.973 13.4C104.605 13.4 104.213 13.48 103.797 13.64C103.381 13.8 103.021 14.056 102.717 14.408C102.429 14.744 102.285 15.2 102.285 15.776ZM113.222 23V6.2H123.998V9.2H116.51V13.232H122.75V16.232H116.51V23H113.222ZM126.056 23V6.2H129.224V23H126.056ZM137.602 23.288C136.386 23.288 135.298 23.024 134.338 22.496C133.394 21.952 132.65 21.208 132.106 20.264C131.578 19.32 131.314 18.232 131.314 17C131.314 15.768 131.578 14.68 132.106 13.736C132.634 12.792 133.37 12.056 134.314 11.528C135.258 10.984 136.338 10.712 137.554 10.712C138.786 10.712 139.874 10.984 140.818 11.528C141.762 12.056 142.498 12.792 143.026 13.736C143.554 14.68 143.818 15.768 143.818 17C143.818 18.232 143.554 19.32 143.026 20.264C142.498 21.208 141.762 21.952 140.818 22.496C139.89 23.024 138.818 23.288 137.602 23.288ZM137.602 20.36C138.194 20.36 138.714 20.216 139.162 19.928C139.61 19.64 139.954 19.248 140.194 18.752C140.45 18.24 140.578 17.656 140.578 17C140.578 16.344 140.45 15.768 140.194 15.272C139.938 14.76 139.578 14.36 139.114 14.072C138.666 13.784 138.146 13.64 137.554 13.64C136.978 13.64 136.458 13.784 135.994 14.072C135.546 14.36 135.194 14.76 134.938 15.272C134.682 15.768 134.554 16.344 134.554 17C134.554 17.656 134.682 18.24 134.938 18.752C135.194 19.248 135.554 19.64 136.018 19.928C136.482 20.216 137.01 20.36 137.602 20.36ZM156.623 23L160.607 11H163.823L159.743 23H156.623ZM148.655 23L152.495 11H155.255L151.463 23H148.655ZM148.343 23L144.263 11H147.479L151.295 23H148.343ZM156.623 23L152.879 11H155.615L159.431 23H156.623Z" fill="#26203B"/>
<defs>
<clipPath id="clip0_8_112">
<rect y="2.5" width="24" height="24" rx="4" fill="white"/>
</clipPath>
</defs>
</svg>
